<svg height="1070.761" viewBox="0 0 1395.197 1070.761" width="1395.197" xmlns="http://www.w3.org/2000/svg"><path d="m54.004 2h1287.19c28.702 0 52.004 23.302 52.004 52.004v1014.758h-1391.198v-1014.758c0-28.702 23.302-52.004 52.004-52.004z" fill="#fff"/><path d="m1393.197 1070.761h-1391.197c-1.104 0-2-.896-2-2v-1014.757c0-29.778 24.226-54.004 54.004-54.004h1287.19c29.777 0 54.003 24.226 54.003 54.004v1014.757c0 1.104-.896 2-2 2zm-1389.197-4h1387.197v-1012.757c0-27.572-22.431-50.004-50.003-50.004h-1287.19c-27.572 0-50.004 22.432-50.004 50.004z" fill="#190e64"/><path d="m1393.197 59.246h-1391.197c-1.104 0-2-.895-2-2s.896-2 2-2h1391.197c1.104 0 2 .896 2 2s-.896 2-2 2z" fill="#190e64"/><circle cx="74.972" cy="29.409" fill="#190e64" r="11.536"/><path d="m74.972 42.945c-7.463 0-13.536-6.072-13.536-13.536s6.072-13.536 13.536-13.536 13.536 6.072 13.536 13.536-6.072 13.536-13.536 13.536zm0-23.072c-5.258 0-9.536 4.278-9.536 9.536s4.278 9.536 9.536 9.536 9.536-4.278 9.536-9.536-4.278-9.536-9.536-9.536z" fill="#190e64"/><circle cx="118.533" cy="29.409" fill="#190e64" r="11.536"/><path d="m118.533 42.945c-7.464 0-13.536-6.072-13.536-13.536s6.072-13.536 13.536-13.536 13.536 6.072 13.536 13.536-6.072 13.536-13.536 13.536zm0-23.072c-5.258 0-9.536 4.278-9.536 9.536s4.278 9.536 9.536 9.536 9.536-4.278 9.536-9.536-4.278-9.536-9.536-9.536z" fill="#190e64"/><circle cx="162.094" cy="29.409" fill="#190e64" r="11.536"/><path d="m162.094 42.945c-7.463 0-13.536-6.072-13.536-13.536s6.072-13.536 13.536-13.536 13.536 6.072 13.536 13.536-6.072 13.536-13.536 13.536zm0-23.072c-5.258 0-9.536 4.278-9.536 9.536s4.278 9.536 9.536 9.536 9.536-4.278 9.536-9.536-4.278-9.536-9.536-9.536z" fill="#190e64"/><rect fill="#fff" height="342.477" rx="32.67" width="400.382" x="39.796" y="689.57"/><path d="m407.508 1034.047h-335.042c-19.117 0-34.67-15.553-34.67-34.67v-277.136c0-19.117 15.553-34.67 34.67-34.67h335.042c19.117 0 34.67 15.553 34.67 34.67v277.136c0 19.117-15.553 34.67-34.67 34.67zm-335.042-342.477c-16.912 0-30.67 13.759-30.67 30.67v277.136c0 16.912 13.759 30.67 30.67 30.67h335.042c16.912 0 30.67-13.759 30.67-30.67v-277.136c0-16.912-13.759-30.67-30.67-30.67z" fill="#190e64"/><rect fill="#fff" height="256.784" rx="24.715" width="49.429" x="356.504" y="732.417"/><path d="m381.218 991.201c-14.73 0-26.715-11.984-26.715-26.715v-207.354c0-14.73 11.984-26.714 26.715-26.714s26.714 11.984 26.714 26.714v207.354c0 14.73-11.984 26.715-26.714 26.715zm0-256.784c-12.525 0-22.715 10.189-22.715 22.714v207.354c0 12.525 10.19 22.715 22.715 22.715s22.714-10.19 22.714-22.715v-207.354c0-12.525-10.189-22.714-22.714-22.714z" fill="#190e64"/><rect fill="#fff" height="256.784" rx="24.715" width="49.429" x="262.349" y="732.417"/><path d="m287.064 991.201c-14.73 0-26.715-11.984-26.715-26.715v-207.354c0-14.73 11.984-26.714 26.715-26.714s26.714 11.984 26.714 26.714v207.354c0 14.73-11.984 26.715-26.714 26.715zm0-256.784c-12.525 0-22.715 10.189-22.715 22.714v207.354c0 12.525 10.19 22.715 22.715 22.715s22.714-10.19 22.714-22.715v-207.354c0-12.525-10.189-22.714-22.714-22.714z" fill="#190e64"/><rect fill="#fff" height="256.784" rx="24.715" width="49.429" x="168.195" y="732.417"/><path d="m192.91 991.201c-14.73 0-26.715-11.984-26.715-26.715v-207.354c0-14.73 11.984-26.714 26.715-26.714s26.714 11.984 26.714 26.714v207.354c0 14.73-11.984 26.715-26.714 26.715zm0-256.784c-12.525 0-22.715 10.189-22.715 22.714v207.354c0 12.525 10.19 22.715 22.715 22.715s22.714-10.19 22.714-22.715v-207.354c0-12.525-10.189-22.714-22.714-22.714z" fill="#190e64"/><rect fill="#fff" height="256.784" rx="24.715" width="49.429" x="74.041" y="732.417"/><g fill="#190e64"><path d="m98.756 991.201c-14.73 0-26.715-11.984-26.715-26.715v-207.354c0-14.73 11.984-26.714 26.715-26.714s26.714 11.984 26.714 26.714v207.354c0 14.73-11.984 26.715-26.714 26.715zm0-256.784c-12.525 0-22.715 10.189-22.715 22.714v207.354c0 12.525 10.19 22.715 22.715 22.715s22.714-10.19 22.714-22.715v-207.354c0-12.525-10.189-22.714-22.714-22.714z"/><rect height="221.345" rx="24.715" width="49.429" x="356.504" y="767.855"/><path d="m381.218 991.201c-14.73 0-26.715-11.984-26.715-26.715v-171.916c0-14.73 11.984-26.715 26.715-26.715s26.714 11.984 26.714 26.715v171.916c0 14.73-11.984 26.715-26.714 26.715zm0-221.346c-12.525 0-22.715 10.19-22.715 22.715v171.916c0 12.525 10.19 22.715 22.715 22.715s22.714-10.19 22.714-22.715v-171.916c0-12.525-10.189-22.715-22.714-22.715z"/><rect height="177.158" rx="24.715" width="49.429" x="262.349" y="812.043"/><path d="m287.064 991.201c-14.73 0-26.715-11.984-26.715-26.715v-127.729c0-14.73 11.984-26.714 26.715-26.714s26.714 11.984 26.714 26.714v127.729c0 14.73-11.984 26.715-26.714 26.715zm0-177.158c-12.525 0-22.715 10.189-22.715 22.714v127.729c0 12.525 10.19 22.715 22.715 22.715s22.714-10.19 22.714-22.715v-127.729c0-12.525-10.189-22.714-22.714-22.714z"/><rect height="120.357" rx="24.715" width="49.429" x="168.195" y="868.844"/><path d="m192.91 991.201c-14.73 0-26.715-11.984-26.715-26.715v-70.927c0-14.73 11.984-26.715 26.715-26.715s26.714 11.984 26.714 26.715v70.927c0 14.73-11.984 26.715-26.714 26.715zm0-120.357c-12.525 0-22.715 10.19-22.715 22.715v70.927c0 12.525 10.19 22.715 22.715 22.715s22.714-10.19 22.714-22.715v-70.927c0-12.525-10.189-22.715-22.714-22.715z"/><rect height="150.741" rx="24.715" width="49.429" x="74.041" y="838.459"/><path d="m98.756 991.201c-14.73 0-26.715-11.984-26.715-26.715v-101.312c0-14.73 11.984-26.715 26.715-26.715s26.714 11.984 26.714 26.715v101.312c0 14.73-11.984 26.715-26.714 26.715zm0-150.741c-12.525 0-22.715 10.19-22.715 22.715v101.312c0 12.525 10.19 22.715 22.715 22.715s22.714-10.19 22.714-22.715v-101.312c0-12.525-10.189-22.715-22.714-22.715z"/></g><rect fill="#fff" height="411.559" rx="32.67" width="888.71" x="469.228" y="93.961"/><path d="m1325.267 507.519h-823.369c-19.117 0-34.67-15.553-34.67-34.67v-346.218c0-19.117 15.553-34.67 34.67-34.67h823.369c19.117 0 34.67 15.553 34.67 34.67v346.218c0 19.117-15.553 34.67-34.67 34.67zm-823.369-411.558c-16.912 0-30.67 13.759-30.67 30.67v346.218c0 16.912 13.758 30.67 30.67 30.67h823.369c16.912 0 30.67-13.759 30.67-30.67v-346.218c0-16.912-13.759-30.67-30.67-30.67z" fill="#190e64"/><path d="m523.29 331.043h62.282v111.97h-62.282z" fill="#190e64"/><path d="m585.573 445.013h-62.282c-1.104 0-2-.896-2-2v-111.97c0-1.104.896-2 2-2h62.282c1.104 0 2 .896 2 2v111.97c0 1.104-.896 2-2 2zm-60.282-4h58.282v-107.97h-58.282z" fill="#190e64"/><path d="m625.905 255.493h62.282v187.52h-62.282z" fill="#fff"/><path d="m688.188 445.013h-62.283c-1.104 0-2-.896-2-2v-187.52c0-1.104.896-2 2-2h62.283c1.104 0 2 .896 2 2v187.52c0 1.104-.896 2-2 2zm-60.283-4h58.283v-183.52h-58.283z" fill="#190e64"/><path d="m728.519 218.335h62.282v224.678h-62.282z" fill="#190e64"/><path d="m790.802 445.013h-62.283c-1.104 0-2-.896-2-2v-224.678c0-1.104.896-2 2-2h62.283c1.104 0 2 .896 2 2v224.678c0 1.104-.896 2-2 2zm-60.283-4h58.283v-220.678h-58.283z" fill="#190e64"/><path d="m831.134 269.272h62.282v173.741h-62.282z" fill="#fff"/><path d="m893.416 445.013h-62.282c-1.104 0-2-.896-2-2v-173.741c0-1.104.896-2 2-2h62.282c1.104 0 2 .896 2 2v173.741c0 1.104-.896 2-2 2zm-60.282-4h58.282v-169.741h-58.282z" fill="#190e64"/><path d="m933.748 307.628h62.282v135.385h-62.282z" fill="#190e64"/><path d="m996.031 445.013h-62.283c-1.104 0-2-.896-2-2v-135.385c0-1.104.896-2 2-2h62.283c1.104 0 2 .896 2 2v135.385c0 1.104-.896 2-2 2zm-60.283-4h58.283v-131.385h-58.283z" fill="#190e64"/><path d="m1036.363 255.493h62.282v187.52h-62.282z" fill="#fff"/><path d="m1098.645 445.013h-62.282c-1.104 0-2-.896-2-2v-187.52c0-1.104.896-2 2-2h62.282c1.104 0 2 .896 2 2v187.52c0 1.104-.896 2-2 2zm-60.282-4h58.282v-183.52h-58.282z" fill="#190e64"/><path d="m1138.977 269.272h62.282v173.741h-62.282z" fill="#190e64"/><path d="m1201.26 445.013h-62.283c-1.104 0-2-.896-2-2v-173.741c0-1.104.896-2 2-2h62.283c1.104 0 2 .896 2 2v173.741c0 1.104-.896 2-2 2zm-60.283-4h58.283v-169.741h-58.283z" fill="#190e64"/><path d="m1241.592 205.348h62.282v237.666h-62.282z" fill="#fff"/><path d="m1303.874 445.013h-62.282c-1.104 0-2-.896-2-2v-237.666c0-1.104.896-2 2-2h62.282c1.104 0 2 .896 2 2v237.666c0 1.104-.896 2-2 2zm-60.282-4h58.282v-233.666h-58.282z" fill="#190e64"/><rect fill="#fff" height="491.07" rx="32.67" width="888.71" x="469.228" y="540.977"/><path d="m1325.267 1034.047h-823.369c-19.117 0-34.67-15.553-34.67-34.67v-425.729c0-19.117 15.553-34.67 34.67-34.67h823.369c19.117 0 34.67 15.553 34.67 34.67v425.729c0 19.117-15.553 34.67-34.67 34.67zm-823.369-491.07c-16.912 0-30.67 13.759-30.67 30.67v425.729c0 16.912 13.758 30.67 30.67 30.67h823.369c16.912 0 30.67-13.759 30.67-30.67v-425.729c0-16.912-13.759-30.67-30.67-30.67z" fill="#190e64"/><path d="m756.308 881.238c-.717 0-1.38-.384-1.736-1.007l-26.277-45.964-37.501 33.494c-.687.613-1.701.678-2.46.16l-93.67-63.988c-.29-.197-.521-.467-.674-.783l-21.044-43.653-68.083 86.247c-.684.867-1.942 1.015-2.809.331-.867-.685-1.015-1.942-.331-2.809l70.066-88.758c.427-.541 1.099-.826 1.789-.749.685.075 1.283.498 1.583 1.119l22.201 46.053 91.936 62.804 38.176-34.096c.45-.402 1.055-.577 1.653-.482.596.097 1.115.458 1.415.981l25.757 45.054 35.595-62.998c.406-.719 1.211-1.115 2.029-.995l56.884 8.286 38.523-40.076c.165-.171.358-.312.572-.415l69.521-33.596c.898-.434 1.98-.14 2.534.691l45.76 68.665 68.537-79.618c.132-.153.287-.286.458-.393l75.252-46.87c.577-.36 1.297-.401 1.912-.11l127.595 60.319 48.299-34.437c.899-.641 2.148-.433 2.79.467.641.899.432 2.148-.467 2.79l-49.254 35.118c-.59.421-1.36.489-2.016.18l-127.67-60.354-74.067 46.131-70.056 81.384c-.408.474-1 .733-1.639.691-.624-.038-1.194-.367-1.541-.887l-46.255-69.407-67.629 32.682-38.987 40.559c-.448.466-1.097.684-1.73.593l-56.546-8.237-36.652 64.869c-.354.626-1.017 1.014-1.736 1.016h-.005z" fill="#190e64"/><circle cx="1153.02" cy="689.57" fill="#ec535b" r="19.858"/><path d="m1153.021 711.429c-12.053 0-21.858-9.806-21.858-21.858s9.806-21.858 21.858-21.858 21.858 9.806 21.858 21.858-9.805 21.858-21.858 21.858zm0-39.717c-9.847 0-17.858 8.011-17.858 17.858s8.011 17.858 17.858 17.858 17.858-8.011 17.858-17.858-8.011-17.858-17.858-17.858z" fill="#ec535b"/><rect fill="#fff" height="565.098" rx="32.67" width="402.918" x="37.26" y="93.961"/><path d="m407.508 661.059h-337.578c-19.117 0-34.67-15.553-34.67-34.67v-499.758c0-19.117 15.553-34.67 34.67-34.67h337.578c19.117 0 34.67 15.553 34.67 34.67v499.758c0 19.117-15.553 34.67-34.67 34.67zm-337.578-565.098c-16.912 0-30.67 13.759-30.67 30.67v499.758c0 16.912 13.758 30.67 30.67 30.67h337.578c16.912 0 30.67-13.759 30.67-30.67v-499.758c0-16.912-13.759-30.67-30.67-30.67z" fill="#190e64"/><rect fill="#fff" height="37.533" rx="18.766" width="338.986" x="63.436" y="434.658"/><path d="m383.656 474.19h-301.454c-11.451 0-20.766-9.316-20.766-20.767s9.315-20.766 20.766-20.766h301.454c11.451 0 20.766 9.315 20.766 20.766s-9.315 20.767-20.766 20.767zm-301.454-37.533c-9.245 0-16.766 7.521-16.766 16.766s7.521 16.767 16.766 16.767h301.454c9.245 0 16.766-7.521 16.766-16.767s-7.521-16.766-16.766-16.766z" fill="#190e64"/><rect fill="#fff" height="37.533" rx="18.766" width="338.986" x="63.436" y="519.418"/><path d="m383.656 558.95h-301.454c-11.451 0-20.766-9.315-20.766-20.766s9.315-20.766 20.766-20.766h301.454c11.451 0 20.766 9.315 20.766 20.766s-9.315 20.766-20.766 20.766zm-301.454-37.532c-9.245 0-16.766 7.521-16.766 16.766s7.521 16.766 16.766 16.766h301.454c9.245 0 16.766-7.521 16.766-16.766s-7.521-16.766-16.766-16.766z" fill="#190e64"/><circle cx="296.751" cy="453.424" fill="#ec535b" r="27.058"/><path d="m296.751 482.482c-16.022 0-29.058-13.036-29.058-29.059s13.036-29.058 29.058-29.058 29.059 13.036 29.059 29.058-13.036 29.059-29.059 29.059zm0-54.117c-13.817 0-25.058 11.241-25.058 25.058s11.241 25.059 25.058 25.059 25.059-11.241 25.059-25.059-11.241-25.058-25.059-25.058z" fill="#ec535b"/><circle cx="186.475" cy="538.184" fill="#ec535b" r="27.058"/><path d="m186.475 567.243c-16.023 0-29.059-13.036-29.059-29.059s13.036-29.058 29.059-29.058 29.059 13.036 29.059 29.058-13.036 29.059-29.059 29.059zm0-54.117c-13.817 0-25.059 11.241-25.059 25.058s11.241 25.059 25.059 25.059 25.059-11.241 25.059-25.059-11.241-25.058-25.059-25.058z" fill="#ec535b"/><path d="m238.719 353.26c-48.472 0-87.767-39.295-87.767-87.767 0-35.213 20.74-65.577 50.669-79.557l-15.367-32.954c-42.325 19.771-71.656 62.712-71.656 112.51 0 68.55 55.571 124.121 124.121 124.121 27.454 0 52.82-8.92 73.375-24.01l-21.491-29.322c-14.534 10.67-32.471 16.978-51.884 16.978z" fill="#190e64"/><path d="m238.719 391.615c-69.543 0-126.122-56.578-126.122-126.122 0-48.788 28.58-93.662 72.81-114.322.481-.224 1.032-.249 1.53-.067.499.181.905.553 1.129 1.034l15.367 32.954c.467 1 .034 2.19-.966 2.657-30.08 14.05-49.515 44.567-49.515 77.745 0 47.292 38.475 85.767 85.767 85.767 18.385 0 35.917-5.737 50.7-16.59.428-.314.964-.445 1.487-.364.525.081.996.366 1.31.794l21.491 29.322c.652.89.46 2.141-.43 2.794-21.741 15.961-47.522 24.398-74.558 24.398zm-53.425-235.958c-41.801 20.372-68.696 63.262-68.696 109.836 0 67.338 54.784 122.122 122.122 122.122 25.51 0 49.865-7.756 70.571-22.453l-19.13-26.1c-15.126 10.604-32.868 16.198-51.441 16.198-49.498 0-89.767-40.27-89.767-89.767 0-34.057 19.569-65.436 50.021-80.502l-13.679-29.334z" fill="#190e64"/><path d="m238.719 177.726c15.079 0 29.268 3.804 41.664 10.503l17.258-32.004c-17.53-9.473-37.597-14.853-58.922-14.853-18.752 0-36.528 4.166-52.465 11.611l15.367 32.954c11.27-5.264 23.839-8.21 37.099-8.21z" fill="#fff"/><path d="m280.383 190.229c-.329 0-.656-.081-.951-.24-12.425-6.714-26.503-10.263-40.713-10.263-12.659 0-24.856 2.699-36.252 8.022-.48.225-1.031.25-1.53.067-.499-.181-.905-.553-1.129-1.034l-15.367-32.954c-.467-1-.034-2.19.966-2.657 16.761-7.83 34.698-11.799 53.312-11.799 20.896 0 41.6 5.219 59.873 15.094.971.525 1.333 1.737.81 2.709l-17.258 32.004c-.252.467-.679.815-1.188.967-.188.056-.38.084-.573.084zm-41.664-14.503c14.2 0 28.277 3.388 40.843 9.812l15.362-28.489c-17.253-8.954-36.642-13.678-56.205-13.678-17.354 0-34.098 3.563-49.801 10.592l13.679 29.333c11.405-5.025 23.546-7.571 36.123-7.571z" fill="#190e64"/><path d="m362.84 265.493c0-47.226-26.376-88.289-65.199-109.268l-17.258 32.004c27.452 14.835 46.103 43.871 46.103 77.264 0 29.06-14.127 54.816-35.883 70.789l21.491 29.322c30.769-22.589 50.747-59.015 50.747-100.111z" fill="#ec535b"/><path d="m312.093 367.604c-.101 0-.203-.008-.304-.023-.525-.081-.996-.366-1.31-.794l-21.491-29.322c-.652-.89-.46-2.141.43-2.794 21.958-16.121 35.067-41.981 35.067-69.177 0-31.556-17.264-60.487-45.054-75.504-.971-.525-1.333-1.737-.81-2.709l17.258-32.004c.252-.467.679-.815 1.188-.967.508-.151 1.057-.096 1.523.157 40.864 22.082 66.249 64.625 66.249 111.027 0 39.992-19.276 78.019-51.563 101.724-.345.253-.76.388-1.184.388zm-18.709-30.91 19.129 26.1c30.299-23.024 48.327-59.245 48.327-97.301 0-44.265-23.854-84.901-62.397-106.542l-15.362 28.488c28.058 15.971 45.405 45.694 45.405 78.054 0 27.799-13.084 54.263-35.102 71.201z" fill="#ec535b"/></svg>